<?xml version="1.0" standalone="no"?>
<!DOCTYPE svg PUBLIC "-//W3C//DTD SVG 20010904//EN"
 "http://www.w3.org/TR/2001/REC-SVG-20010904/DTD/svg10.dtd">
<svg version="1.0" xmlns="http://www.w3.org/2000/svg"
 width="91.000000pt" height="91.000000pt" viewBox="0 0 91.000000 91.000000"
 preserveAspectRatio="xMidYMid meet">
<metadata>
Created by potrace 1.11, written by Peter Selinger 2001-2013
</metadata>
<g transform="translate(0.000000,91.000000) scale(0.100000,-0.100000)"
fill="#000000" stroke="none">
<path d="M350 890 c-24 -24 -27 -82 -4 -104 45 -46 116 -19 122 47 6 65 -72
103 -118 57z"/>
<path d="M620 847 c-30 -15 -38 -52 -15 -77 30 -33 88 -6 83 38 -4 36 -36 55
-68 39z"/>
<path d="M121 758 c-59 -21 -71 -119 -22 -169 42 -41 98 -41 140 2 83 82 -6
209 -118 167z"/>
<path d="M744 684 c-61 -30 -74 -116 -25 -165 64 -64 171 -20 171 71 0 50 -22
85 -62 99 -40 14 -47 14 -84 -5z"/>
<path d="M425 645 c-14 -13 -25 -36 -25 -50 0 -33 41 -75 73 -75 41 0 71 32
71 75 0 69 -71 99 -119 50z"/>
<path d="M16 464 c-32 -31 -11 -84 32 -84 35 0 52 17 52 52 0 43 -53 64 -84
32z"/>
<path d="M318 452 c-15 -2 -39 -17 -53 -33 -59 -71 -13 -169 78 -169 35 0 50
6 71 26 25 26 28 33 28 74 0 39 -2 47 -21 69 -22 25 -63 38 -103 33z"/>
<path d="M572 418 c-29 -29 -8 -80 32 -80 33 0 56 18 56 46 0 29 -18 46 -50
46 -14 0 -31 -5 -38 -12z"/>
<path d="M770 350 c-25 -25 -26 -81 -2 -103 50 -46 122 -15 122 53 0 29 -6 43
-22 54 -31 22 -74 20 -98 -4z"/>
<path d="M91 262 c-31 -24 -31 -79 -1 -104 46 -38 110 -8 110 52 0 59 -64 90
-109 52z"/>
<path d="M524 176 c-39 -39 -45 -80 -17 -127 33 -56 117 -63 163 -14 18 19 23
36 23 71 0 40 -4 51 -31 76 -46 41 -93 39 -138 -6z"/>
<path d="M293 98 c-19 -25 -21 -46 -6 -67 33 -49 111 5 79 54 -16 24 -59 31
-73 13z"/>
</g>
</svg>
